<?xml version="1.0" encoding="UTF-8"?>
<svg 
	xmlns="http://www.w3.org/2000/svg" 	xmlns:xlink="http://www.w3.org/1999/xlink" version="1.1" 	viewBox="0 0 10500 10500">
  	<g>
   		<path style="fill:#E75A4D;stroke:#000000;stroke-width:1" 			 d="
                                                         M1000, 10000
                                                         a1000,1000,0,0,1,-1000,-1000
                                                         L0,4000
                                                         a1000,1000,0,0,1,500,-866
                                                         L4133,1000
                                                         A1792,1792,0,0,1,5866,1000
                                                         L9500,3133
                                                         A1000,1000,0,0,1,10000,4000
                                                         l-1000,0
                                                         L5000,1500
                                                         L1000,4000
                                                         L1000,10000
                                                         "/>

    <polygon 
		style="fill:#F7F5ED" 
		points="1000,4000 5000,1500 9000,4000 5000,7500"/>


    <path 
		style="fill:none;stroke:#000000;stroke-width:50" 
		d="
                                          M1025,4000
                                          L8975,4000
                                          L5000,1500z
                                          "/>

    <path 
		style="fill:#E7E4D7;stroke:#000000;stroke-width:50" 
		d="
                                          M1000,9975
                                          l0,-5950,
                                          L5000,7000
                                          L9000,4050
                                          L9000,9975
                                          L1000,9975
                                          L5000,7000
                                          L9000,9975

                                          "/>

    <path 
		style="fill:#B2392F;stroke:#000000;stroke-width:3" 
		d="
                                                         M9000,10000
                                                         a1000,1000,1,0,0,1000,-1000
                                                         L10000,4000
                                                         a1000,1000,1,0,0,-133,-500
                                                         L9000,4000
                                                         "/>


  </g>

    <g transform="translate(1500,3700) scale(1.8,1.8)">
      <rect 
		x="0" y="0" rx="400" ry="400" 
		width="4500" height="3000" 
		style="fill:#E6FFFF;stroke:#000000;stroke-width:100" />
      <line x1="1300" y1="1200" x2="2300" y2="1200" 
		style="stroke:#00CED1;stroke-width:200" />
      <line x1="1300" y1="1800" x2="2300" y2="1800" 
		style="stroke:#00CED1;stroke-width:200" />
      <path 
		style="fill:none;stroke:#00CED1;stroke-width:200" 			d="M3000,500 A1500,1500,0,0,1,3000,2500" />
    </g>

</svg>
