<?xml version="1.0" encoding="UTF-8"?>
<svg xmlns="http://www.w3.org/2000/svg" xmlns:xlink="http://www.w3.org/1999/xlink" version="1.1" viewBox="0 0 10500 10500">

    <g transform="translate(3500,6000) skewX(-50) ">
      <rect x="0" y="0" rx="400" ry="400" width="4500" height="3000" style="fill:#f08080;stroke:#000000;stroke-width:100" />
      <line x1="1300" y1="1200" x2="2300" y2="1200" style="stroke:#ff0000;stroke-width:200" />
      <line x1="1300" y1="1800" x2="2300" y2="1800" style="stroke:#ff0000;stroke-width:200" />
      <path style="fill:none;stroke:#ff0000;stroke-width:200" d="M3000,500 A1500,1500,0,0,1,3000,2500" />
    </g>

    <g transform="translate(3500,5600) skewX(-50) ">
      <rect x="0" y="0" rx="400" ry="400" width="4500" height="3000" style="fill:#f08080;stroke:#000000;stroke-width:100" />
      <line x1="1300" y1="1200" x2="2300" y2="1200" style="stroke:#ff0000;stroke-width:200" />
      <line x1="1300" y1="1800" x2="2300" y2="1800" style="stroke:#ff0000;stroke-width:200" />
      <path style="fill:none;stroke:#ff0000;stroke-width:200" d="M3000,500 A1500,1500,0,0,1,3000,2500" />
    </g>

    <g transform="translate(3500,5200) skewX(-50) ">
      <rect x="0" y="0" rx="400" ry="400" width="4500" height="3000" style="fill:#f08080;stroke:#000000;stroke-width:100" />
      <line x1="1300" y1="1200" x2="2300" y2="1200" style="stroke:#ff0000;stroke-width:200" />
      <line x1="1300" y1="1800" x2="2300" y2="1800" style="stroke:#ff0000;stroke-width:200" />
      <path style="fill:none;stroke:#ff0000;stroke-width:200" d="M3000,500 A1500,1500,0,0,1,3000,2500" />
    </g>



    <circle cx="7000" cy="8500" r="800" style="fill:#ff0000;stroke:#000000;stroke-width:30" />
    <path style="fill:#ff0000;stroke:#000000;stroke-width:30" d="
      M7000,7400
      m-150,0
      l-550,-6500
      a700,700,0,0,1,1400,0
      l-550,6500
      a150,150,0,0,1,-300,0
      "/>


</svg>
